
<svg xmlns="http://www.w3.org/2000/svg"
     class="svg-snoweb svg-theme-dark"
     x="0"
     y="0"
     width="100%"
     height="100%"
     viewBox="0 0 100 100"
     preserveAspectRatio="xMidYMid meet"
>
<defs>
    <style>
        
            
            
            
        

        .svg-fill-primary {
            fill: #FFF;
        }

        .svg-fill-secondary {
            fill: #65CDAE;
        }

        .svg-fill-tertiary {
            fill: #37A987;
        }

        .svg-stroke-primary {
            stroke: #FFF;
        }

        .svg-stroke-secondary {
            stroke: #65CDAE;
        }

        .svg-stroke-tertiary {
            stroke: #37A987;
        }
    </style>
</defs>
    <path d="M17.9,39.3A7.1,7.1,0,0,1,25,32.2h3.3a7.2,7.2,0,0,0,6-3.2l2.9-4.4a7.2,7.2,0,0,1,5.9-3.1H56.9a7.2,7.2,0,0,1,5.9,3.1L65.7,29a7.2,7.2,0,0,0,6,3.2H75a7.1,7.1,0,0,1,7.1,7.1V71.4A7.1,7.1,0,0,1,75,78.5H25a7.1,7.1,0,0,1-7.1-7.1Z"
      fill="none" class="svg-stroke-primary" stroke-linecap="round" stroke-linejoin="round" stroke-width="8"/>
<path d="M60.7,53.6A10.7,10.7,0,1,1,50,42.9,10.7,10.7,0,0,1,60.7,53.6Z" fill="none" class="svg-stroke-primary"
      stroke-linecap="round" stroke-linejoin="round" stroke-width="8"/>

</svg>